<?xml version="1.0" encoding="utf-8"?>
<svg version="1.1" xmlns="http://www.w3.org/2000/svg" xmlns:xlink="http://www.w3.org/1999/xlink" x="0px" y="0px" viewBox="0 0 1200 1200" enable-background="new 0 0 1200 1200" xml:space="preserve">
<g fill="white" stroke="white" x="100px" y="100px"><path stroke="white" d="M10,688.3V236.8c0-16.2,4.6-30.6,13.7-43.3c9.1-12.7,21.1-21.8,35.9-27.4L474.2,15.3c8.4-3.5,16.9-5.3,25.3-5.3c8.4,0,17.2,1.8,26.4,5.3l414.6,150.9c14.8,5.6,26.7,14.8,35.9,27.4c9.1,12.7,13.7,27.1,13.7,43.3v451.5c0,14.1-3.5,27.1-10.5,39s-16.9,21.1-29.5,27.4L535.3,980.5c-10.5,6.3-22.5,9.5-35.9,9.5s-25.3-3.2-35.9-9.5L49,754.8c-12-7-21.4-16.2-28.5-27.4S10,703.1,10,688.3L10,688.3z M89.1,235.7l410.4,148.7l411.4-148.7L499.5,86L89.1,235.7z M537.4,894L914,688.3V313.8L537.4,450.9V894z"/></g>
</svg>